<svg width="67" height="67" viewBox="0 0 67 67" fill="none" xmlns="http://www.w3.org/2000/svg">
<path d="M39.7812 17.384C41.5158 17.384 42.9219 15.9779 42.9219 14.2434C42.9219 12.5089 41.5158 11.1028 39.7812 11.1028C38.0467 11.1028 36.6406 12.5089 36.6406 14.2434C36.6406 15.9779 38.0467 17.384 39.7812 17.384Z" fill="#27C5A7"/>
<path d="M48.1562 59.259H44.1703C43.7314 59.259 43.2968 59.1726 42.8913 59.0047C42.4858 58.8367 42.1174 58.5905 41.807 58.2802C41.4967 57.9699 41.2505 57.6014 41.0825 57.196C40.9146 56.7905 40.8281 56.3559 40.8281 55.917C40.8281 55.3399 40.9776 54.7726 41.2619 54.2703C41.5463 53.7681 41.9559 53.3481 42.4508 53.0512L47.1094 50.25L50.25 55.0715L48.1562 59.259Z" fill="#015078"/>
<path d="M3.14062 45.6496L6.81777 44.9143C7.84302 44.7092 8.80933 44.2772 9.64578 43.6498L12.5625 41.4621L13.5356 40.8281L14.6562 44.6028L12.336 46.3432C11.1239 47.2521 9.64975 47.7434 8.13474 47.7434C7.21522 47.7434 6.3047 47.5623 5.45518 47.2104C4.60565 46.8585 3.83375 46.3428 3.18355 45.6926L3.14062 45.6496Z" fill="#D18D28"/>
<path d="M14.6892 36.8708C15.3589 35.7548 16.2389 34.7794 17.2802 33.9986C19.0044 32.7053 20.4614 31.0899 21.5703 29.2417L22.174 28.2357C22.7351 27.2999 23.0315 26.2292 23.0312 25.1381V20.5247L26.1719 17.384L29.8359 18.3L32.4531 17.384L34.5469 20.5247L30.6211 23.6653L31.4062 28.8997L31.6585 29.4885C32.2538 30.877 32.3052 32.4386 31.8025 33.8633L31.7992 33.8724L35.8488 35.8424C36.0995 35.9644 36.3233 36.1352 36.507 36.3448C36.6908 36.5544 36.8309 36.7986 36.9191 37.0631L38.7344 42.509L35.5937 43.5559L33.5 39.3684L29.3125 38.3215L23.0312 41.4622L20.9375 44.6028L22.4879 47.7042C22.6529 48.0343 22.7277 48.4022 22.7047 48.7706C22.6818 49.139 22.5618 49.4947 22.357 49.8018L20.9375 51.9309L19.8906 59.259H16.75V49.8372L15.092 48.1793C14.1277 47.215 13.4888 45.9735 13.2647 44.6283L13.242 44.4922C12.8036 41.8605 13.3166 39.1587 14.6892 36.8708Z" fill="#FFC571"/>
<path d="M25.3368 24.5976C25.1491 24.8487 24.9063 25.0534 24.627 25.1959C24.3477 25.3384 24.0394 25.4148 23.7259 25.4194L23.086 25.4299L23.0376 20.5187L24.2611 19.2952L25.592 22.5745C25.7284 22.9049 25.7766 23.2651 25.7319 23.6198C25.6871 23.9744 25.551 24.3114 25.3368 24.5976Z" fill="#FFC571"/>
<path d="M38.7344 17.384L41.875 16.3372L45.0156 26.8059L51.2969 30.9934L48.1562 34.134L40.8281 28.8997L39.7812 21.5715L38.7344 20.5247V17.384Z" fill="#FDC9A6"/>
<path d="M63.5977 48.7903L62.254 39.158C61.9293 37.2102 61.3957 35.3032 60.6623 33.4698L60.6589 33.4613C60.3676 32.7328 59.8646 32.1083 59.2149 31.6684C58.5652 31.2285 57.7986 30.9934 57.014 30.9934H51.2969L48.1562 34.134L51.2969 36.2278V43.5559L63.5977 48.7903Z" fill="#FAA7A7"/>
<path d="M46.1484 49.4149L48.5055 55.0716H55.4846L54.4377 53.3907L56.8101 54.343C57.9943 54.8183 59.2916 54.937 60.5424 54.6845C61.3403 54.5235 62.0728 54.1306 62.6484 53.5551C62.6914 53.512 62.7334 53.4681 62.7744 53.4233C63.1796 52.9698 63.4796 52.4324 63.653 51.8495C63.8263 51.2665 63.8687 50.6525 63.7771 50.0513L63.5979 48.7903L51.9397 43.6818C51.1319 43.3356 50.2389 43.2393 49.3758 43.4055C48.5128 43.5717 47.7194 43.9928 47.0979 44.6143C46.4819 45.2304 46.0627 46.0156 45.8936 46.8703C45.7246 47.725 45.8133 48.6107 46.1484 49.4149Z" fill="#026CA2"/>
<path d="M59.6719 37.2747V33.0872C59.6719 32.5319 59.4513 31.9993 59.0586 31.6067C58.666 31.214 58.1334 30.9934 57.5781 30.9934C57.0228 30.9934 56.4903 31.214 56.0976 31.6067C55.705 31.9993 55.4844 32.5319 55.4844 33.0872V37.2747H59.6719Z" fill="#E98484"/>
<path d="M55.4844 37.2747V42.509H45.2773C44.6526 42.509 44.0535 42.7572 43.6118 43.1989C43.17 43.6407 42.9219 44.2398 42.9219 44.8645V46.6965H56.5312C57.3642 46.6965 58.163 46.3656 58.752 45.7767C59.341 45.1877 59.6719 44.3889 59.6719 43.5559V37.2747H55.4844Z" fill="#FDC9A6"/>
<path d="M51.2969 22.0278H55.4844L57.5781 25.1685V25.7818C57.5781 26.7297 57.2015 27.6388 56.5312 28.3091V30.9934H52.3438V28.3091C51.6735 27.6388 51.2969 26.7297 51.2969 25.7818V22.0278Z" fill="#FDC9A6"/>
<path d="M51.2968 22.0279L50.6525 20.0947C50.5316 19.732 50.5141 19.3428 50.6019 18.9707C50.6898 18.5986 50.8795 18.2583 51.1498 17.9879C51.4864 17.6513 51.9293 17.4417 52.4031 17.3948C52.8768 17.3479 53.3522 17.4666 53.7484 17.7306L55.4843 18.8873H56.6528C57.2271 18.8873 57.7869 19.0681 58.2528 19.4039C58.7187 19.7398 59.0671 20.2137 59.2486 20.7586C59.3804 21.1539 59.4202 21.5741 59.3648 21.9871C59.3095 22.4001 59.1606 22.7951 58.9295 23.1418L57.5781 25.1685L55.4843 22.0279H51.2968Z" fill="#55300B"/>
<path d="M27.7422 21.4407C28.2481 21.4407 28.6582 21.0306 28.6582 20.5247C28.6582 20.0188 28.2481 19.6086 27.7422 19.6086C27.2363 19.6086 26.8262 20.0188 26.8262 20.5247C26.8262 21.0306 27.2363 21.4407 27.7422 21.4407Z" fill="#C38325"/>
<path d="M25.3368 24.5976C25.1491 24.8487 24.9063 25.0534 24.627 25.1959C24.3477 25.3384 24.0394 25.4148 23.7259 25.4194L23.086 25.4299L23.0376 20.5187L24.2611 19.2952L25.592 22.5745C25.7284 22.9049 25.7766 23.2651 25.7319 23.6198C25.6871 23.9744 25.551 24.3114 25.3368 24.5976Z" fill="#C38325"/>
<path d="M6.05183 53.2403C5.34767 53.2404 4.64733 53.1367 3.97339 52.9326C3.83989 52.8945 3.71532 52.8301 3.60693 52.7433C3.49854 52.6566 3.4085 52.5491 3.34204 52.4272C3.27559 52.3052 3.23405 52.1713 3.21985 52.0332C3.20564 51.8951 3.21906 51.7555 3.25931 51.6226C3.29957 51.4897 3.36586 51.3662 3.45432 51.2592C3.54278 51.1521 3.65165 51.0638 3.77459 50.9992C3.89752 50.9347 4.03207 50.8952 4.1704 50.8832C4.30873 50.8711 4.44807 50.8867 4.58032 50.9291C5.25772 51.1336 5.97028 51.195 6.67268 51.1092C7.37508 51.0235 8.05195 50.7925 8.66025 50.431L9.41007 49.9846C9.52824 49.9131 9.6594 49.8656 9.79599 49.845C9.93259 49.8244 10.0719 49.831 10.2059 49.8644C10.34 49.8979 10.4661 49.9576 10.5769 50.04C10.6878 50.1224 10.7812 50.2259 10.8519 50.3446C10.9226 50.4633 10.969 50.5949 10.9886 50.7316C11.0082 50.8683 11.0006 51.0076 10.9661 51.1414C10.9316 51.2752 10.871 51.4008 10.7878 51.511C10.7045 51.6213 10.6003 51.7139 10.481 51.7837L9.73133 52.2301C8.61804 52.8917 7.34688 53.2407 6.05183 53.2403Z" fill="#6EE7F5"/>
<path d="M19.5986 21.179C19.321 21.179 19.0547 21.0687 18.8584 20.8724C18.6621 20.6761 18.5518 20.4098 18.5518 20.1321C18.5507 18.4525 19.1724 16.8321 20.2966 15.5842L21.2301 14.5472C21.3212 14.442 21.4323 14.3561 21.557 14.2944C21.6817 14.2327 21.8175 14.1964 21.9563 14.1878C22.0952 14.1792 22.2344 14.1983 22.3658 14.2441C22.4972 14.2899 22.6181 14.3614 22.7215 14.4544C22.825 14.5475 22.9088 14.6602 22.9681 14.7861C23.0275 14.9119 23.0612 15.0483 23.0672 15.1873C23.0732 15.3263 23.0515 15.4651 23.0032 15.5956C22.955 15.7261 22.8812 15.8457 22.7862 15.9474L21.8539 16.9848C21.0757 17.8484 20.6454 18.9697 20.6462 20.1321C20.6462 20.2697 20.6191 20.4059 20.5664 20.5329C20.5138 20.66 20.4366 20.7754 20.3393 20.8726C20.242 20.9698 20.1265 21.0469 19.9995 21.0995C19.8724 21.1521 19.7362 21.1791 19.5986 21.179Z" fill="#6EE7F5"/>
<path d="M47.1104 11.3856C46.9373 11.3858 46.7669 11.343 46.6144 11.2612C46.4619 11.1793 46.3321 11.0609 46.2366 10.9166L46.1526 10.7898C45.8749 10.3688 45.4969 10.0234 45.0526 9.78465C44.6084 9.5459 44.1118 9.42124 43.6074 9.42188C43.3298 9.42188 43.0635 9.31158 42.8672 9.11526C42.6708 8.91893 42.5605 8.65265 42.5605 8.375C42.5605 8.09736 42.6708 7.83108 42.8672 7.63475C43.0635 7.43843 43.3298 7.32813 43.6074 7.32813C44.4577 7.32701 45.295 7.53713 46.0439 7.93961C46.7929 8.34209 47.4302 8.92432 47.8986 9.634L47.9823 9.76054C48.0868 9.91823 48.1466 10.1013 48.1553 10.2902C48.1641 10.4792 48.1215 10.667 48.032 10.8336C47.9426 11.0003 47.8097 11.1396 47.6474 11.2368C47.4851 11.334 47.2995 11.3854 47.1104 11.3856Z" fill="#6EE7F5"/>
<path d="M48.5053 55.0715L47.1094 57.1653V59.259H55.4844V55.0715H48.5053Z" fill="#CBCBCB"/>
<path d="M54.4375 53.3906L55.4844 55.0722H54.1994L50.445 49.8116C50.3651 49.6998 50.308 49.5733 50.277 49.4393C50.246 49.3054 50.2416 49.1666 50.2642 49.031C50.2868 48.8954 50.3359 48.7656 50.4087 48.649C50.4815 48.5323 50.5765 48.4312 50.6884 48.3513C50.8003 48.2713 50.9268 48.2143 51.0607 48.1832C51.1947 48.1522 51.3334 48.1479 51.469 48.1705C51.7429 48.2161 51.9874 48.3687 52.1488 48.5947L56.0262 54.0279L54.4375 53.3906Z" fill="#015078"/>
<path d="M42.9219 14.2441C42.9219 14.2624 42.9219 14.2807 42.9206 14.299C42.9112 14.3031 42.9016 14.3066 42.8918 14.3095C40.9444 14.9603 38.9046 15.2918 36.8513 15.2909H36.8199C36.5809 14.6135 36.5809 13.8746 36.8199 13.1972H36.8513C38.6799 13.1973 40.4965 12.9022 42.2309 12.323C42.2399 12.3198 42.2491 12.3172 42.2584 12.3152C42.6896 12.8655 42.9233 13.5449 42.9219 14.2441Z" fill="#2AD3B3"/>
<path d="M51.2969 30.9934V36.2278L48.1562 34.134L51.2969 30.9934Z" fill="#E98484"/>
</svg>
