<svg width="67" height="67" viewBox="0 0 67 67" fill="none" xmlns="http://www.w3.org/2000/svg">
<path d="M29.313 23.0312L23.0317 29.3125C22.8446 29.2196 22.6632 29.1188 22.4874 29.0102C21.4467 28.3786 20.5736 27.5053 19.9422 26.4645C19.3107 25.4237 18.9395 24.246 18.8599 23.0312C18.8495 22.8677 18.8442 22.7028 18.8442 22.5366V19.8906H25.1255L29.313 23.0312Z" fill="#F3AF3E"/>
<path d="M27.2192 26.1719L24.602 27.7422L22.4873 29.0102C21.4466 28.3786 20.5736 27.5053 19.9421 26.4645C19.3107 25.4237 18.9394 24.246 18.8599 23.0312H24.1741L26.7036 25.6406L27.2192 26.1719Z" fill="#5B3726"/>
<path d="M48.1567 19.8906V22.5366C48.1567 22.7028 48.1515 22.8677 48.141 23.0312C48.0542 24.3512 47.6234 25.6255 46.8915 26.7274C46.1597 27.8293 45.1522 28.7205 43.9692 29.3125L37.688 23.0312L41.8755 19.8906H48.1567Z" fill="#F3AF3E"/>
<path d="M48.141 23.0312C48.0669 24.1635 47.7394 25.2646 47.1827 26.2532C46.626 27.2419 45.8542 28.0929 44.9245 28.7433L41.8755 27.2188L39.7817 26.1719L40.2973 25.6406L42.8268 23.0312H48.141Z" fill="#5B3726"/>
<path d="M45.0161 31.4062V45.0156H21.9849V31.4062C21.9849 28.3521 23.1981 25.4231 25.3577 23.2635C27.5173 21.1039 30.4464 19.8906 33.5005 19.8906C36.5546 19.8906 39.4837 21.1039 41.6433 23.2635C43.8029 25.4231 45.0161 28.3521 45.0161 31.4062Z" fill="#F3AF3E"/>
<path d="M47.1099 4.1875L46.063 8.375L57.5786 15.7031V43.9688H61.7661V13.6094L48.1567 4.5365L47.1099 4.1875Z" fill="#B9B9B9"/>
<path d="M61.7661 47.1094V53.3906C61.7661 56.1671 60.6632 58.8299 58.6999 60.7931C56.7366 62.7564 54.0738 63.8594 51.2974 63.8594H15.7036C12.9271 63.8594 10.2644 62.7564 8.30109 60.7931C6.33782 58.8299 5.23486 56.1671 5.23486 53.3906V47.1094H61.7661Z" fill="#C0B1F9"/>
<path d="M61.7661 42.9219H5.23486C4.07852 42.9219 3.14111 43.8593 3.14111 45.0156C3.14111 46.172 4.07852 47.1094 5.23486 47.1094H61.7661C62.9225 47.1094 63.8599 46.172 63.8599 45.0156C63.8599 43.8593 62.9225 42.9219 61.7661 42.9219Z" fill="#DAD1FF"/>
<path d="M45.3809 11.7593L40.6978 4.81562L43.6336 3.47562C44.432 3.11119 45.3337 3.0418 46.1784 3.27979C47.0232 3.51778 47.7561 4.04771 48.2468 4.77532C48.7375 5.5029 48.9542 6.38096 48.8583 7.2533C48.7625 8.12564 48.3603 8.9357 47.7233 9.53938L45.3809 11.7593Z" fill="#CBCBCB"/>
<path d="M29.313 37.6875V39.7812C28.2374 39.7801 27.1883 39.4481 26.3078 38.8303C25.4274 38.2126 24.7583 37.3389 24.3914 36.3279C23.4327 35.9789 22.5965 35.3582 21.9849 34.5416V31.4062H23.0317C23.0316 31.8478 23.1247 32.2844 23.3052 32.6874C23.4856 33.0904 23.7492 33.4507 24.0786 33.7447V32.4531H26.1724V34.5469C26.1735 35.3795 26.5047 36.1777 27.0935 36.7664C27.6822 37.3552 28.4804 37.6864 29.313 37.6875Z" fill="#DA922A"/>
<path d="M45.0161 31.4062V34.5416C44.4045 35.3582 43.5683 35.9789 42.6096 36.3279C42.2427 37.3389 41.5736 38.2126 40.6931 38.8303C39.8127 39.4481 38.7635 39.7801 37.688 39.7812V37.6875C38.5206 37.6864 39.3188 37.3552 39.9075 36.7664C40.4963 36.1777 40.8275 35.3795 40.8286 34.5469V32.4531H42.9224V33.7447C43.2518 33.4507 43.5154 33.0904 43.6958 32.6874C43.8762 32.2844 43.9694 31.8478 43.9692 31.4062H45.0161Z" fill="#DA922A"/>
<path d="M27.937 27.2886L31.0787 26.2425L31.7403 28.2296L28.5987 29.2757L27.937 27.2886Z" fill="#D18D28"/>
<path d="M35.2632 28.1946L35.9249 26.2075L39.0665 27.2536L38.4048 29.2407L35.2632 28.1946Z" fill="#D18D28"/>
<path d="M38.1562 37.5769L37.2197 35.7043C36.3901 36.1164 35.4349 36.1981 34.5473 35.9329V33.5H32.4536V35.934C31.5659 36.1988 30.6108 36.117 29.7812 35.705L28.8447 37.5776C29.5634 37.9351 30.349 38.138 31.1509 38.1733C31.9528 38.2086 32.7532 38.0755 33.5004 37.7825C34.2478 38.0754 35.0482 38.2084 35.8501 38.173C36.652 38.1376 37.4376 37.9345 38.1562 37.5769Z" fill="#744630"/>
<path d="M25.1255 41.875C25.1262 42.2426 25.0295 42.6037 24.8454 42.9219H21.9849V38.7344C22.8178 38.7344 23.6166 39.0653 24.2056 39.6542C24.7946 40.2432 25.1255 41.0421 25.1255 41.875Z" fill="#D18D28"/>
<path d="M45.0161 38.7344V42.9219H42.1555C41.9714 42.6037 41.8748 42.2426 41.8755 41.875C41.8755 41.0421 42.2064 40.2432 42.7954 39.6542C43.3843 39.0653 44.1832 38.7344 45.0161 38.7344Z" fill="#D18D28"/>
<path d="M30.3599 17.7968H28.2661C28.2654 16.6047 28.4725 15.4216 28.878 14.3005L30.8473 15.0119C30.5243 15.9048 30.3593 16.8473 30.3599 17.7968Z" fill="#C0F5F9"/>
<path d="M31.8003 13.1552L30.0742 11.9698C30.9081 10.752 31.9958 9.72915 33.2626 8.97171L34.0085 8.52417L35.0857 10.3196L34.3398 10.7671C33.3308 11.3704 32.4644 12.1851 31.8003 13.1552Z" fill="#C0F5F9"/>
<path d="M35.5942 17.7968H33.5005C33.4998 16.6047 33.7069 15.4216 34.1124 14.3005L36.0817 15.0119C35.7586 15.9048 35.5937 16.8473 35.5942 17.7968Z" fill="#C0F5F9"/>
<path d="M37.0346 13.1552L35.3086 11.9698C36.1425 10.752 37.2302 9.72915 38.497 8.97171L39.2429 8.52417L40.3201 10.3196L39.5742 10.7671C38.5652 11.3704 37.6988 12.1851 37.0346 13.1552Z" fill="#C0F5F9"/>
<path d="M40.8286 17.7968H38.7349C38.7342 16.6047 38.9413 15.4216 39.3468 14.3005L41.3161 15.0119C40.993 15.9048 40.8281 16.8473 40.8286 17.7968Z" fill="#C0F5F9"/>
<path d="M10.4692 38.7344C12.7819 38.7344 14.6567 36.8596 14.6567 34.5469C14.6567 32.2342 12.7819 30.3594 10.4692 30.3594C8.15655 30.3594 6.28174 32.2342 6.28174 34.5469C6.28174 36.8596 8.15655 38.7344 10.4692 38.7344Z" fill="#B3E4E8"/>
<path d="M6.28174 27.2188C8.01626 27.2188 9.42236 25.8126 9.42236 24.0781C9.42236 22.3436 8.01626 20.9375 6.28174 20.9375C4.54722 20.9375 3.14111 22.3436 3.14111 24.0781C3.14111 25.8126 4.54722 27.2188 6.28174 27.2188Z" fill="#C0F5F9"/>
<path d="M51.2974 35.5938C52.4537 35.5938 53.3911 34.6563 53.3911 33.5C53.3911 32.3437 52.4537 31.4062 51.2974 31.4062C50.141 31.4062 49.2036 32.3437 49.2036 33.5C49.2036 34.6563 50.141 35.5938 51.2974 35.5938Z" fill="#C0F5F9"/>
<path d="M12.563 51.2969C12.563 51.5745 12.4527 51.8408 12.2564 52.0371C12.06 52.2335 11.7938 52.3438 11.5161 52.3438H5.23486V50.25H11.5161C11.7938 50.25 12.06 50.3603 12.2564 50.5566C12.4527 50.7529 12.563 51.0192 12.563 51.2969Z" fill="#DAD1FF"/>
<path d="M16.7505 52.3438H15.7036C15.426 52.3438 15.1597 52.2335 14.9634 52.0371C14.767 51.8408 14.6567 51.5745 14.6567 51.2969C14.6567 51.0192 14.767 50.7529 14.9634 50.5566C15.1597 50.3603 15.426 50.25 15.7036 50.25H16.7505C17.0281 50.25 17.2944 50.3603 17.4907 50.5566C17.6871 50.7529 17.7974 51.0192 17.7974 51.2969C17.7974 51.5745 17.6871 51.8408 17.4907 52.0371C17.2944 52.2335 17.0281 52.3438 16.7505 52.3438Z" fill="#DAD1FF"/>
<path d="M33.5005 54.4375C33.7781 54.4375 34.0444 54.3272 34.2407 54.1309C34.4371 53.9346 34.5474 53.6683 34.5474 53.3906V52.3438C34.5474 52.0661 34.4371 51.7998 34.2407 51.6035C34.0444 51.4072 33.7781 51.2969 33.5005 51.2969C33.2228 51.2969 32.9566 51.4072 32.7602 51.6035C32.5639 51.7998 32.4536 52.0661 32.4536 52.3438V53.3906C32.4536 53.6683 32.5639 53.9346 32.7602 54.1309C32.9566 54.3272 33.2228 54.4375 33.5005 54.4375Z" fill="#323EDD"/>
<path d="M31.4067 55.4844V54.4375C31.4067 54.1599 31.2964 53.8936 31.1001 53.6972C30.9038 53.5009 30.6375 53.3906 30.3599 53.3906C30.0822 53.3906 29.8159 53.5009 29.6196 53.6972C29.4233 53.8936 29.313 54.1599 29.313 54.4375V55.4844C29.313 55.762 29.4233 56.0283 29.6196 56.2246C29.8159 56.421 30.0822 56.5312 30.3599 56.5312C30.6375 56.5312 30.9038 56.421 31.1001 56.2246C31.2964 56.0283 31.4067 55.762 31.4067 55.4844Z" fill="#323EDD"/>
<path d="M36.6411 53.3906C36.3635 53.3906 36.0972 53.5009 35.9009 53.6972C35.7045 53.8936 35.5942 54.1599 35.5942 54.4375V55.4844C35.5942 55.762 35.7045 56.0283 35.9009 56.2246C36.0972 56.421 36.3635 56.5312 36.6411 56.5312C36.9188 56.5312 37.185 56.421 37.3814 56.2246C37.5777 56.0283 37.688 55.762 37.688 55.4844V54.4375C37.688 54.1599 37.5777 53.8936 37.3814 53.6972C37.185 53.5009 36.9188 53.3906 36.6411 53.3906Z" fill="#323EDD"/>
<path d="M35.5942 57.5781H34.5474V56.5312C34.5474 56.2536 34.4371 55.9873 34.2407 55.791C34.0444 55.5947 33.7781 55.4844 33.5005 55.4844C33.2228 55.4844 32.9566 55.5947 32.7602 55.791C32.5639 55.9873 32.4536 56.2536 32.4536 56.5312V57.5781H31.4067C31.1291 57.5781 30.8628 57.6884 30.6665 57.8847C30.4702 58.0811 30.3599 58.3474 30.3599 58.625C30.3599 58.9026 30.4702 59.1689 30.6665 59.3653C30.8628 59.5616 31.1291 59.6719 31.4067 59.6719H35.5942C35.8719 59.6719 36.1382 59.5616 36.3345 59.3653C36.5308 59.1689 36.6411 58.9026 36.6411 58.625C36.6411 58.3474 36.5308 58.0811 36.3345 57.8847C36.1382 57.6884 35.8719 57.5781 35.5942 57.5781Z" fill="#323EDD"/>
<path d="M50.2505 60.7188C49.9728 60.7188 49.7066 60.6085 49.5102 60.4121C49.3139 60.2158 49.2036 59.9495 49.2036 59.6719C49.2036 59.3942 49.3139 59.1279 49.5102 58.9316C49.7066 58.7353 49.9728 58.625 50.2505 58.625C51.9158 58.6232 53.5124 57.9608 54.69 56.7832C55.8675 55.6057 56.5299 54.0091 56.5317 52.3438C56.5317 52.0661 56.642 51.7998 56.8384 51.6035C57.0347 51.4072 57.301 51.2969 57.5786 51.2969C57.8563 51.2969 58.1225 51.4072 58.3189 51.6035C58.5152 51.7998 58.6255 52.0661 58.6255 52.3438C58.623 54.5642 57.7398 56.6929 56.1698 58.263C54.5997 59.8331 52.4709 60.7163 50.2505 60.7188Z" fill="#DAD1FF"/>
<path d="M46.063 60.7188H45.0161C44.7385 60.7188 44.4722 60.6085 44.2759 60.4121C44.0795 60.2158 43.9692 59.9495 43.9692 59.6719C43.9692 59.3942 44.0795 59.1279 44.2759 58.9316C44.4722 58.7353 44.7385 58.625 45.0161 58.625H46.063C46.3406 58.625 46.6069 58.7353 46.8032 58.9316C46.9996 59.1279 47.1099 59.3942 47.1099 59.6719C47.1099 59.9495 46.9996 60.2158 46.8032 60.4121C46.6069 60.6085 46.3406 60.7188 46.063 60.7188Z" fill="#DAD1FF"/>
<path d="M21.9849 43.9688H19.8911C19.3358 43.9688 18.8033 43.7482 18.4106 43.3555C18.018 42.9629 17.7974 42.4303 17.7974 41.875C17.7974 41.0421 18.1282 40.2432 18.7172 39.6542C19.3062 39.0653 20.105 38.7344 20.938 38.7344C21.7709 38.7344 22.5698 39.0653 23.1587 39.6542C23.7477 40.2432 24.0786 41.0421 24.0786 41.875C24.0786 42.4303 23.858 42.9629 23.4654 43.3555C23.0727 43.7482 22.5402 43.9688 21.9849 43.9688Z" fill="#F3AF3E"/>
<path d="M47.1099 43.9688H45.0161C44.4608 43.9688 43.9283 43.7482 43.5356 43.3555C43.143 42.9629 42.9224 42.4303 42.9224 41.875C42.9224 41.0421 43.2533 40.2432 43.8422 39.6542C44.4312 39.0653 45.23 38.7344 46.063 38.7344C46.8959 38.7344 47.6948 39.0653 48.2837 39.6542C48.8727 40.2432 49.2036 41.0421 49.2036 41.875C49.2036 42.4303 48.983 42.9629 48.5904 43.3555C48.1977 43.7482 47.6652 43.9688 47.1099 43.9688Z" fill="#F3AF3E"/>
<path d="M33.5005 34.5469C32.9452 34.5469 32.4126 34.3263 32.02 33.9336C31.6273 33.541 31.4067 33.0084 31.4067 32.4531V30.3594H35.5942V32.4531C35.5942 33.0084 35.3736 33.541 34.981 33.9336C34.5883 34.3263 34.0558 34.5469 33.5005 34.5469Z" fill="#5B3726"/>
<path d="M5.23486 47.1094H61.7661V49.2031H5.23486V47.1094Z" fill="#ECE7FE"/>
<path d="M36.6372 6.29395L40.1086 3.95313L45.9607 12.6317L42.4892 14.9725L36.6372 6.29395Z" fill="#B9B9B9"/>
</svg>
