<svg width="67" height="67" viewBox="0 0 67 67" fill="none" xmlns="http://www.w3.org/2000/svg">
<path d="M31.4793 43.9641C30.9218 43.9641 30.4729 44.4157 30.4729 44.9705C30.4729 45.5252 30.9218 45.9795 31.4793 45.9795C32.0367 45.9795 32.4856 45.5279 32.4856 44.9705C32.4856 44.413 32.0367 43.9641 31.4793 43.9641Z" fill="#F9EDED"/>
<path d="M31.4793 54.5366C32.0351 54.5366 32.4856 54.0861 32.4856 53.5303C32.4856 52.9745 32.0351 52.5239 31.4793 52.5239C30.9235 52.5239 30.4729 52.9745 30.4729 53.5303C30.4729 54.0861 30.9235 54.5366 31.4793 54.5366Z" fill="#F9EDED"/>
<path d="M34.1687 45.8788C33.0297 51.1946 31.892 57.8209 31.7741 63.8723V63.9233H34.0735V63.8978C34.7703 59.7036 38.9377 51.5148 40.5444 48.9809C39.5313 47.263 37.1019 43.1546 37.1019 43.1546L42.8626 40.2977L38.8975 36.2362L38.9042 36.1906C37.985 36.0298 37.2413 35.7913 36.6383 35.5112L36.59 35.6184C36.6999 35.6626 35.7351 38.955 34.6403 43.7455C34.4849 44.4289 34.3268 45.1418 34.166 45.8775L34.1687 45.8788Z" fill="#93D6E5"/>
<path d="M24.3612 45.7341C24.2138 45.048 24.0677 44.3834 23.9203 43.7456C22.8269 38.9551 21.8608 35.6627 21.9706 35.6185L21.9291 35.522C21.2872 35.8087 20.5047 36.0499 19.5506 36.2081C15.556 36.8714 8.23697 38.8546 8.23697 46.6547V63.871L8.24635 63.9219H26.7866V63.871C26.67 57.762 25.5136 51.0713 24.3612 45.7328V45.7341Z" fill="#93D6E5"/>
<path d="M40.9906 11.5469C40.9745 10.6276 40.858 9.73117 40.6556 8.92315C40.0325 6.42807 38.9083 5.63077 35.4484 4.06699C32.1949 2.59701 25.9947 2.59701 22.0176 4.39529C19.3804 5.58789 17.7885 7.42235 17.7885 10.5057C17.7885 10.8795 17.7952 11.2413 17.8086 11.5857C17.9708 15.871 19.0629 17.9762 19.0629 17.9762L19.2022 18.015C19.6994 16.2878 21.3784 16.7005 21.3784 16.7005H21.3971V13.392C21.3971 12.4661 22.7023 11.6514 24.3733 11.6514C26.0443 11.6514 27.8157 12.8828 29.5618 12.8547C31.0907 12.8319 32.9077 11.6514 34.4729 11.6514C36.038 11.6514 37.1622 12.576 37.1622 13.392V16.7005H37.2132C37.2132 16.7005 38.6764 16.3427 39.2768 17.6961L39.2808 17.6934C40.5029 16.1002 41.0281 13.7538 40.9866 11.5455L40.9906 11.5469Z" fill="#86868E"/>
<path d="M34.2424 32.6356V29.7948L34.2397 29.7908C33.1302 30.5881 31.5985 31.1294 29.488 31.1294H29.0753C27.1176 31.1294 25.657 30.6618 24.5689 29.9596L24.5649 29.969V32.6356C24.5649 33.1555 24.1267 34.2436 22.7023 35.1186L29.2817 38.2355L35.8973 35.0985C34.5693 34.2275 34.2424 33.1515 34.2424 32.6356Z" fill="#FFBDBC"/>
<path d="M34.0749 63.8979V63.9233H50.2366V45.2049C49.3857 38.6027 42.7447 36.8312 39.0128 36.2094C38.9779 36.2027 38.9417 36.1974 38.9069 36.1907L38.9002 36.2362L42.8653 40.2978L37.1046 43.1547C37.1046 43.1547 39.5327 47.2644 40.5471 48.981C38.9391 51.5149 34.773 59.7037 34.0762 63.8979H34.0749Z" fill="#69B0BC"/>
<path d="M39.2794 17.6973C38.6791 16.3439 37.2158 16.7017 37.2158 16.7017H37.1649V13.3932C37.1649 12.5772 36.0527 11.6526 34.4755 11.6526C32.8983 11.6526 31.0934 12.8331 29.5644 12.8559C27.8171 12.884 26.1045 11.6526 24.3759 11.6526C22.6473 11.6526 21.3998 12.466 21.3998 13.3932V16.7017H21.381C21.381 16.7017 19.702 16.289 19.2049 18.0162C19.1151 18.3191 19.0655 18.6862 19.0655 19.1311C19.0655 21.3984 20.5837 21.7562 21.3261 21.795H21.3998V23.4526C21.3998 23.4526 21.2484 27.8116 24.5716 29.9597C25.6583 30.6618 27.1189 31.1295 29.078 31.1295H29.4907C31.5999 31.1295 33.1315 30.5881 34.2424 29.7908C37.311 27.5919 37.1689 23.4526 37.1689 23.4526V21.795H37.2761C38.0171 21.7562 39.5367 21.3984 39.5367 19.1311C39.5367 18.5147 39.4375 18.0484 39.2821 17.6973H39.2794Z" fill="#FFBDBC"/>
<path d="M36.641 35.5114C36.3636 35.38 36.1157 35.2434 35.8986 35.0986L29.283 38.2356L22.7036 35.1187C22.4718 35.2608 22.2159 35.3961 21.9305 35.5221L21.972 35.6186C21.8621 35.6628 22.8269 38.9552 23.9217 43.7457C24.0678 44.3835 24.2151 45.0481 24.3625 45.7342C25.5163 51.0728 26.6714 57.7634 26.788 63.8725V63.9234H31.7754V63.8725C31.892 57.821 33.0297 51.1947 34.17 45.8789C34.3308 45.1433 34.4889 44.4291 34.6444 43.747C35.7378 38.9565 36.7039 35.6641 36.5941 35.6199L36.6423 35.5127L36.641 35.5114Z" fill="#F9EDED"/>
<path d="M17.8555 11.583L17.8099 11.5856C17.9721 15.871 19.0642 17.9761 19.0642 17.9761L19.2035 18.015C19.7007 16.2877 21.3797 16.7004 21.3797 16.7004H21.3985V13.392C21.3985 12.466 22.7036 11.6513 24.3746 11.6513C26.0456 11.6513 27.8171 12.8828 29.5644 12.8546C31.0934 12.8318 32.9104 11.6513 34.4755 11.6513C36.0406 11.6513 37.1649 12.5759 37.1649 13.392V16.7004H37.2158C37.2158 16.7004 38.6791 16.3426 39.2794 17.696L39.2834 17.6934C40.5055 16.1001 41.0308 13.7538 40.9893 11.5454C40.4412 11.4449 39.9132 11.2493 39.4282 10.9773C38.2999 10.3381 37.3967 9.26476 36.1425 8.92708C34.9713 8.61486 33.7345 9.01418 32.6129 9.47514C31.4887 9.9361 30.3456 10.4708 29.1316 10.4319C27.4191 10.3796 25.8754 9.18436 24.1629 9.24198C21.8969 9.3197 20.1067 11.5468 17.8542 11.583H17.8555Z" fill="#67676F"/>
<path d="M39.2794 17.6973C38.6791 16.3439 37.2158 16.7017 37.2158 16.7017H37.1649V13.3932C37.1649 12.5772 36.0527 11.6526 34.4755 11.6526C32.8983 11.6526 31.0934 12.8331 29.5644 12.8559C27.8171 12.884 26.1045 11.6526 24.3759 11.6526C22.6473 11.6526 21.3998 12.466 21.3998 13.3932V16.7017H21.381C21.381 16.7017 19.702 16.289 19.2049 18.0162C19.1151 18.3191 19.0655 18.6862 19.0655 19.1311C19.0655 21.3984 20.5837 21.7562 21.3261 21.795H21.3998V23.4526C21.3998 23.4526 21.2484 27.8116 24.5716 29.9597L24.5676 29.969V32.6356C27.9457 34.8989 31.163 34.7957 34.2437 32.6356V29.7948L34.241 29.7908C37.3096 27.5919 37.1676 23.4526 37.1676 23.4526V21.795H37.2748C38.0158 21.7562 39.5354 21.3984 39.5354 19.1311C39.5354 18.5147 39.4362 18.0484 39.2808 17.6973H39.2794ZM29.4693 29.5939H29.0927C21.9023 29.5939 22.1422 22.6433 22.1422 22.6433V13.8555C22.1422 13.8555 23.0024 12.2623 25.0888 13.2458C27.1752 14.2321 27.9578 14.342 29.4117 14.3286C30.8682 14.3125 33.2065 12.9323 34.6216 12.9256C36.0339 12.9189 36.4199 13.9024 36.4199 13.9024V22.6433C36.4199 22.6433 36.6584 29.5939 29.4693 29.5939Z" fill="#F49E9D"/>
<path d="M15.8268 63.8978V63.9219H18.3165L15.8268 46.1978V63.8978Z" fill="#69B0BC"/>
<path d="M19.5158 46.7727C19.497 46.7727 19.4769 46.7674 19.4595 46.758C19.4072 46.7272 19.3898 46.6602 19.4206 46.6079C20.293 45.1326 21.1961 43.6023 21.4333 43.2016L15.7758 40.397C15.745 40.3809 15.7222 40.3515 15.7169 40.318C15.7115 40.2831 15.7222 40.2483 15.7463 40.2228C15.7463 40.2228 18.7506 37.1462 19.5305 36.3475C19.572 36.3047 19.6417 36.3033 19.6846 36.3462C19.7275 36.3877 19.7288 36.4574 19.6859 36.5003C18.9932 37.2092 16.545 39.7163 16.0076 40.2684L21.6356 43.0583C21.6624 43.0717 21.6839 43.0958 21.6919 43.1253C21.7 43.1547 21.6973 43.1856 21.6812 43.2124C21.6812 43.2124 20.6239 45.0026 19.6082 46.7205C19.5881 46.7553 19.5519 46.7741 19.5144 46.7741L19.5158 46.7727Z" fill="#69B0BC"/>
<path d="M24.5676 63.7222C24.5153 63.7222 24.4697 63.6847 24.4604 63.6325C23.5786 58.72 20.9643 54.3288 20.1831 53.1001C20.1509 53.0491 20.1657 52.9821 20.2166 52.9486C20.2675 52.9165 20.3358 52.9312 20.368 52.9821C21.1546 54.219 23.7863 58.641 24.6761 63.5923C24.6868 63.6512 24.6466 63.7088 24.5877 63.7196C24.581 63.7196 24.5743 63.7209 24.5676 63.7209V63.7222Z" fill="#69B0BC"/>
<path d="M29.2817 38.2356L23.9203 43.7457C24.0664 44.3835 24.246 45.1929 24.392 45.8776L29.2803 40.791L29.3246 40.7454L34.1673 45.8776C34.3281 45.142 34.4862 44.4277 34.6417 43.7457L29.2803 38.2356H29.2817Z" fill="#D7D7DF"/>
<path d="M29.1731 38.7058H29.3915V63.6673H29.1731V38.7058Z" fill="#D7D7DF"/>
<path d="M31.4793 46.0894C30.8642 46.0894 30.3631 45.5882 30.3631 44.9705C30.3631 44.3527 30.8642 43.8542 31.4793 43.8542C32.0943 43.8542 32.5955 44.3554 32.5955 44.9705C32.5955 45.5855 32.0943 46.0894 31.4793 46.0894ZM31.4793 44.074C30.9848 44.074 30.5815 44.476 30.5815 44.9718C30.5815 45.4676 30.9835 45.871 31.4793 45.871C31.9751 45.871 32.3771 45.4676 32.3771 44.9718C32.3771 44.476 31.9751 44.074 31.4793 44.074Z" fill="#D7D7DF"/>
<path d="M31.4793 54.6465C30.8642 54.6465 30.3631 54.1453 30.3631 53.5303C30.3631 52.9152 30.8642 52.4141 31.4793 52.4141C32.0943 52.4141 32.5955 52.9152 32.5955 53.5303C32.5955 54.1453 32.0943 54.6465 31.4793 54.6465ZM31.4793 52.6338C30.9848 52.6338 30.5815 53.0358 30.5815 53.5316C30.5815 54.0274 30.9835 54.4294 31.4793 54.4294C31.9751 54.4294 32.3771 54.0274 32.3771 53.5316C32.3771 53.0358 31.9751 52.6338 31.4793 52.6338Z" fill="#D7D7DF"/>
<path d="M52.6593 50.9509C52.5937 50.7781 52.524 50.6079 52.4543 50.4364C52.0831 49.5359 51.6543 48.6649 51.1733 47.8274C49.8333 48.3232 48.311 48.6086 46.6923 48.6086C45.8829 48.6086 45.1004 48.5389 44.3473 48.4049C43.5969 48.2709 42.8827 48.0753 42.2113 47.8274C41.7303 48.6649 41.3042 49.5359 40.9316 50.4364C39.3062 54.3639 38.7206 58.8851 39.1776 63.9972L39.1977 63.9945H54.1896L54.207 63.9972H54.2097C54.2955 63.0458 54.3437 62.1158 54.3558 61.2073C54.5541 57.6965 53.9484 54.2768 52.6607 50.9509H52.6593Z" fill="#FFBC5B"/>
<path d="M46.691 43.6197C45.9714 43.6197 45.3898 42.8144 45.3898 42.3628C45.3898 41.9112 45.9714 41.5454 46.691 41.5454C47.4106 41.5454 47.9948 41.9126 47.9948 42.3628C47.9948 42.8131 47.4106 43.6197 46.691 43.6197Z" fill="#67676F"/>
<path d="M56.0053 39.5703C56.0053 39.5703 57.9161 33.2696 57.1188 32.3879C56.3617 31.5504 51.988 33.1771 50.8356 33.886L50.8382 33.89C50.7042 33.8217 50.5689 33.756 50.4309 33.6957C50.0061 33.5028 49.5652 33.3393 49.1123 33.2106C48.5442 33.0472 47.9559 32.9346 47.3516 32.889C47.1331 32.8716 46.9147 32.8609 46.6909 32.8609C46.4672 32.8609 46.2487 32.8716 46.033 32.889C45.4514 32.9333 44.8873 33.0378 44.3379 33.1905C43.885 33.3178 43.4428 33.4746 43.0193 33.6649C42.8612 33.7346 42.7111 33.8069 42.5584 33.882C41.406 33.1731 37.0228 31.5504 36.2671 32.3879C35.4684 33.2696 37.3779 39.5703 37.3779 39.5703C37.1019 40.3167 36.9934 41.0175 36.9934 41.7183C36.9934 41.926 37.0068 42.131 37.0322 42.3347C37.1394 43.199 37.4717 44.0191 37.9903 44.7601C38.6054 45.6485 39.4817 46.4271 40.547 47.0448C41.0616 47.345 41.619 47.6063 42.2113 47.8274C42.8827 48.0739 43.5982 48.2709 44.3473 48.4049C45.099 48.5389 45.8829 48.6086 46.6923 48.6086C48.311 48.6086 49.8332 48.3245 51.1732 47.8274C51.7682 47.6063 52.3256 47.3436 52.8402 47.0448C53.667 46.5637 54.3799 45.9862 54.9467 45.3363C55.1088 45.15 55.2589 44.9584 55.3969 44.7588C55.9128 44.0177 56.2451 43.1977 56.3523 42.3334C56.3791 42.1297 56.3912 41.9247 56.3912 41.717C56.3912 41.0175 56.28 40.3153 56.0066 39.5689L56.0053 39.5703ZM46.6909 43.6211C45.9714 43.6211 45.3898 42.8158 45.3898 42.3642C45.3898 41.9461 45.891 41.6004 46.5382 41.5521C46.5891 41.5521 46.6387 41.5454 46.6909 41.5454C46.7432 41.5454 46.7901 41.5495 46.841 41.5508C47.4896 41.5977 47.9948 41.9448 47.9948 42.3628C47.9948 42.8158 47.4105 43.6198 46.6909 43.6198V43.6211Z" fill="#FFBC5B"/>
<path d="M45.2813 45.3014C44.2106 45.3014 43.9614 44.5885 43.9507 44.5577C43.9319 44.5001 43.9627 44.4384 44.0204 44.4197C44.078 44.4009 44.1396 44.4317 44.1584 44.4893C44.1664 44.5135 44.3755 45.0843 45.2813 45.0843C46.1871 45.0843 46.5757 44.1865 46.5905 44.149C46.6133 44.0927 46.6776 44.0659 46.7325 44.0887C46.7888 44.1115 46.8156 44.1744 46.7928 44.2307C46.7754 44.2749 46.3479 45.3027 45.2813 45.3027V45.3014Z" fill="#67676F"/>
<path d="M48.102 45.3015C47.0367 45.3015 46.6079 44.2737 46.5905 44.2295C46.5851 44.2161 46.5824 44.2027 46.5824 44.1879V42.7354C46.5824 42.6751 46.6307 42.6255 46.6923 42.6255C46.7539 42.6255 46.8022 42.6737 46.8022 42.7354V44.1651C46.8625 44.3005 47.2484 45.0817 48.1033 45.0817C49.0118 45.0817 49.2209 44.5109 49.2289 44.4867C49.249 44.4305 49.3107 44.3996 49.3683 44.4184C49.4246 44.4385 49.4554 44.4988 49.4366 44.5564C49.4259 44.5872 49.1767 45.3001 48.1033 45.3001L48.102 45.3015Z" fill="#67676F"/>
<path d="M40.925 43.018C40.8767 43.018 40.8137 42.9912 40.6891 42.9376C40.2241 42.7379 38.99 42.2086 37.0457 42.4431C36.3194 42.5289 35.5542 42.7192 34.7703 43.01C34.7141 43.0314 34.6511 43.0019 34.6296 42.9456C34.6082 42.8894 34.6377 42.8264 34.694 42.8049C35.4939 42.5088 36.2765 42.3145 37.0202 42.2261C39.0208 41.9835 40.2952 42.5316 40.7749 42.7366C40.8352 42.7634 40.8982 42.7902 40.925 42.7982C40.9678 42.7929 41.0107 42.8183 41.0308 42.8599C41.0576 42.9148 41.0348 42.9791 40.9812 43.0059C40.9625 43.0153 40.9464 43.0193 40.9263 43.0193L40.925 43.018Z" fill="#67676F"/>
<path d="M35.3814 46.2769C35.3479 46.2769 35.3144 46.2621 35.2929 46.2326C35.2567 46.1844 35.2675 46.1161 35.3157 46.0799C36.18 45.4394 37.0671 44.9596 37.9542 44.6555C39.526 44.1154 40.6971 44.2628 41.138 44.3178C41.209 44.3272 41.2613 44.3339 41.2934 44.3339C41.3323 44.3191 41.3765 44.3285 41.4087 44.3593C41.4516 44.4022 41.4516 44.4719 41.4087 44.5134C41.3698 44.5523 41.3176 44.5523 41.2988 44.5523C41.2626 44.5523 41.1996 44.5442 41.1112 44.5335C40.6837 44.4799 39.5488 44.3379 38.0252 44.8605C37.1595 45.1566 36.2912 45.6256 35.4457 46.2527C35.4256 46.2675 35.4028 46.2742 35.38 46.2742L35.3814 46.2769Z" fill="#67676F"/>
<path d="M52.461 43.018C52.4409 43.018 52.4235 43.014 52.4061 43.0046C52.3525 42.9778 52.3297 42.9121 52.3578 42.8585C52.3779 42.8183 52.4208 42.7969 52.4623 42.7982C52.4878 42.7902 52.5494 42.7634 52.6097 42.7379C53.0895 42.5316 54.3625 41.9849 56.3658 42.2261C57.1081 42.3145 57.8907 42.5088 58.6907 42.8049C58.7469 42.8264 58.7764 42.888 58.755 42.9456C58.7349 43.0019 58.6719 43.0314 58.6143 43.01C57.8304 42.7192 57.0639 42.5289 56.339 42.4431C54.3919 42.2073 53.1591 42.7393 52.6955 42.9389C52.5722 42.9925 52.5092 43.0193 52.461 43.0193V43.018Z" fill="#67676F"/>
<path d="M58.0046 46.2769C57.9818 46.2769 57.959 46.2702 57.9389 46.2554C57.0934 45.6283 56.2251 45.1593 55.3594 44.8632C53.8332 44.3392 52.6982 44.4813 52.2694 44.5349C52.0845 44.559 52.0282 44.5643 51.9773 44.5188C51.9317 44.4786 51.929 44.4089 51.9692 44.3647C52.0001 44.3312 52.0456 44.3205 52.0872 44.3339C52.114 44.3339 52.1796 44.3258 52.2426 44.3178C52.6848 44.2628 53.8573 44.1154 55.4305 44.6555C56.3175 44.9596 57.206 45.438 58.0689 46.0799C58.1172 46.1161 58.1279 46.1844 58.0917 46.2326C58.0703 46.2621 58.0368 46.2769 58.0033 46.2769H58.0046Z" fill="#67676F"/>
<path d="M43.3852 63.8711C43.3249 63.8711 43.2753 63.8229 43.2753 63.7613V57.6375C43.2753 57.5772 43.3235 57.5276 43.3852 57.5276C43.4468 57.5276 43.4951 57.5758 43.4951 57.6375V63.7613C43.4951 63.8216 43.4468 63.8711 43.3852 63.8711Z" fill="#D6944D"/>
<path d="M50.4309 63.8711C50.3706 63.8711 50.321 63.8229 50.321 63.7612V62.034C50.321 61.9737 50.3693 61.9241 50.4309 61.9241C50.4925 61.9241 50.5408 61.9723 50.5408 62.034V63.7612C50.5408 63.8215 50.4925 63.8711 50.4309 63.8711Z" fill="#D6944D"/>
<path d="M55.7909 34.6605C56.1272 35.0343 55.5832 37.1757 55.3138 38.1418C54.7041 37.0805 53.8573 36.0661 52.8389 35.2152C53.742 34.8038 55.4385 34.2705 55.7909 34.6591V34.6605Z" fill="#D6944D"/>
<path d="M51.4091 39.5569C51.984 39.5569 52.4516 40.0232 52.4516 40.5981C52.4516 41.1729 51.984 41.6392 51.4091 41.6392C50.8342 41.6392 50.3679 41.1729 50.3679 40.5981C50.3679 40.0232 50.8342 39.5569 51.4091 39.5569Z" fill="#67676F"/>
<path d="M46.691 43.6197C47.4105 43.6197 47.9948 42.8144 47.9948 42.3628C47.9948 41.9112 47.4105 41.5454 46.691 41.5454C49.1968 41.5454 50.7766 43.0985 51.7039 44.555C52.5267 45.8361 52.8389 47.0461 52.8389 47.0461C52.3243 47.3463 51.7669 47.6076 51.1719 47.8287C49.8319 48.3245 48.3097 48.6099 46.691 48.6099C45.8816 48.6099 45.099 48.5402 44.346 48.4062C43.5956 48.2722 42.8813 48.0766 42.21 47.8287C41.6177 47.6076 41.0603 47.3449 40.5457 47.0461C40.5457 47.0461 40.8392 45.9152 41.5976 44.6824C42.5155 43.1909 44.1101 41.5467 46.691 41.5467C45.9714 41.5467 45.3898 41.9139 45.3898 42.3641C45.3898 42.8144 45.9714 43.6211 46.691 43.6211V43.6197Z" fill="#FFDE89"/>
<path d="M50.4309 33.6955V36.0928C50.4309 36.4559 50.1361 36.7534 49.773 36.7534C49.4098 36.7534 49.1123 36.4559 49.1123 36.0928V33.2104C49.5653 33.3391 50.0075 33.5039 50.4309 33.6955Z" fill="#D6944D"/>
<path d="M46.691 43.6197C45.9714 43.6197 45.3898 42.8144 45.3898 42.3628C45.3898 41.9112 45.9714 41.5454 46.691 41.5454C47.4106 41.5454 47.9948 41.9126 47.9948 42.3628C47.9948 42.8131 47.4106 43.6197 46.691 43.6197Z" fill="#67676F"/>
<path d="M47.3516 32.889V37.3833C47.3516 37.7465 47.0541 38.044 46.691 38.044C46.3278 38.044 46.033 37.7465 46.033 37.3833V32.889C46.2501 32.8716 46.4699 32.8608 46.691 32.8608C46.9121 32.8608 47.1332 32.8716 47.3516 32.889Z" fill="#D6944D"/>
<path d="M44.3379 33.1904V36.0942C44.3379 36.4573 44.0431 36.7548 43.68 36.7548C43.3168 36.7548 43.0193 36.4573 43.0193 36.0942V33.6648C43.4441 33.4745 43.885 33.3177 44.3379 33.1904Z" fill="#D6944D"/>
<path d="M41.9742 39.5569C42.549 39.5569 43.0167 40.0232 43.0167 40.5981C43.0167 41.1729 42.549 41.6392 41.9742 41.6392C41.3993 41.6392 40.933 41.1729 40.933 40.5981C40.933 40.0232 41.3993 39.5569 41.9742 39.5569Z" fill="#67676F"/>
<path d="M40.5457 35.2152C39.5246 36.0661 38.6804 37.0805 38.0707 38.1417C37.8014 37.1756 37.2574 35.0343 37.5937 34.6604C37.9461 34.2705 39.6426 34.8051 40.5457 35.2165V35.2152Z" fill="#D6944D"/>
<path d="M45.2813 45.3014C44.2106 45.3014 43.9614 44.5885 43.9506 44.5577C43.9319 44.5001 43.9627 44.4384 44.0203 44.4197C44.078 44.4009 44.1396 44.4317 44.1584 44.4893C44.1664 44.5135 44.3754 45.0843 45.2813 45.0843C46.1871 45.0843 46.5757 44.1865 46.5905 44.149C46.6132 44.0927 46.6776 44.0659 46.7325 44.0887C46.7888 44.1115 46.8156 44.1744 46.7928 44.2307C46.7754 44.2749 46.3479 45.3027 45.2813 45.3027V45.3014Z" fill="#67676F"/>
<path d="M48.102 45.3015C47.0367 45.3015 46.6079 44.2737 46.5905 44.2295C46.5851 44.2161 46.5824 44.2027 46.5824 44.1879V42.7354C46.5824 42.6751 46.6307 42.6255 46.6923 42.6255C46.7539 42.6255 46.8022 42.6737 46.8022 42.7354V44.1651C46.8625 44.3005 47.2484 45.0817 48.1033 45.0817C49.0118 45.0817 49.2209 44.5109 49.2289 44.4867C49.249 44.4305 49.3107 44.3996 49.3683 44.4184C49.4246 44.4385 49.4554 44.4988 49.4366 44.5564C49.4259 44.5872 49.1767 45.3001 48.1033 45.3001L48.102 45.3015Z" fill="#67676F"/>
<path d="M40.925 43.018C40.8767 43.018 40.8137 42.9912 40.6891 42.9376C40.2241 42.7379 38.99 42.2086 37.0457 42.4431C36.3194 42.5289 35.5542 42.7192 34.7703 43.01C34.7141 43.0314 34.6511 43.0019 34.6296 42.9456C34.6082 42.8894 34.6377 42.8264 34.694 42.8049C35.4939 42.5088 36.2765 42.3145 37.0202 42.2261C39.0208 41.9835 40.2952 42.5316 40.7749 42.7366C40.8352 42.7634 40.8982 42.7902 40.925 42.7982C40.9678 42.7929 41.0107 42.8183 41.0308 42.8599C41.0576 42.9148 41.0348 42.9791 40.9812 43.0059C40.9625 43.0153 40.9464 43.0193 40.9263 43.0193L40.925 43.018Z" fill="#67676F"/>
<path d="M35.3814 46.2769C35.3479 46.2769 35.3144 46.2621 35.2929 46.2326C35.2567 46.1844 35.2675 46.1161 35.3157 46.0799C36.18 45.4394 37.0671 44.9596 37.9542 44.6555C39.526 44.1154 40.6971 44.2628 41.138 44.3178C41.209 44.3272 41.2613 44.3339 41.2934 44.3339C41.3323 44.3191 41.3765 44.3285 41.4087 44.3593C41.4516 44.4022 41.4516 44.4719 41.4087 44.5134C41.3698 44.5523 41.3176 44.5523 41.2988 44.5523C41.2626 44.5523 41.1996 44.5442 41.1112 44.5335C40.6837 44.4799 39.5488 44.3379 38.0252 44.8605C37.1595 45.1566 36.2912 45.6256 35.4457 46.2527C35.4256 46.2675 35.4028 46.2742 35.38 46.2742L35.3814 46.2769Z" fill="#67676F"/>
<path d="M52.461 43.018C52.4409 43.018 52.4235 43.014 52.4061 43.0046C52.3525 42.9778 52.3297 42.9121 52.3578 42.8585C52.3779 42.8183 52.4208 42.7969 52.4623 42.7982C52.4878 42.7902 52.5494 42.7634 52.6097 42.7379C53.0895 42.5316 54.3625 41.9849 56.3658 42.2261C57.1081 42.3145 57.8907 42.5088 58.6907 42.8049C58.7469 42.8264 58.7764 42.888 58.755 42.9456C58.7349 43.0019 58.6719 43.0314 58.6143 43.01C57.8304 42.7192 57.0639 42.5289 56.339 42.4431C54.3919 42.2073 53.1591 42.7393 52.6955 42.9389C52.5722 42.9925 52.5092 43.0193 52.461 43.0193V43.018Z" fill="#67676F"/>
<path d="M58.0046 46.2769C57.9818 46.2769 57.959 46.2702 57.9389 46.2554C57.0934 45.6283 56.2251 45.1593 55.3594 44.8632C53.8332 44.3392 52.6982 44.4813 52.2694 44.5349C52.0845 44.559 52.0282 44.5643 51.9773 44.5188C51.9317 44.4786 51.929 44.4089 51.9692 44.3647C52 44.3312 52.0456 44.3205 52.0871 44.3339C52.1139 44.3339 52.1796 44.3258 52.2426 44.3178C52.6848 44.2628 53.8573 44.1154 55.4304 44.6555C56.3175 44.9596 57.2059 45.438 58.0689 46.0799C58.1171 46.1161 58.1279 46.1844 58.0917 46.2326C58.0702 46.2621 58.0367 46.2769 58.0032 46.2769H58.0046Z" fill="#67676F"/>
<path d="M43.3852 63.8711C43.3249 63.8711 43.2753 63.8229 43.2753 63.7613V57.6375C43.2753 57.5772 43.3235 57.5276 43.3852 57.5276C43.4468 57.5276 43.4951 57.5758 43.4951 57.6375V63.7613C43.4951 63.8216 43.4468 63.8711 43.3852 63.8711Z" fill="#D6944D"/>
<path d="M56.9835 59.3969C57.1081 60.0401 56.682 60.6672 56.0415 60.7905L54.3383 61.1161L51.2094 61.7178C50.9924 61.7593 50.778 61.7379 50.5863 61.6696C50.2031 61.5302 49.9002 61.1992 49.8185 60.7731L49.781 60.5895C49.6658 59.9838 50.0343 59.3916 50.6158 59.2227C50.6185 59.2227 50.6198 59.2227 50.6198 59.22L55.4639 58.2901C55.4948 58.2834 55.5256 58.2767 55.5564 58.2686H55.5604C56.2009 58.1467 56.8267 58.5728 56.9486 59.2107L56.9835 59.3969Z" fill="#FFBDBC"/>
<path d="M56.4824 56.7878C56.6097 57.4484 56.1983 58.0929 55.5591 58.2685H55.5551L50.7244 59.1957C50.6895 59.2024 50.6547 59.2105 50.6199 59.2199C50.6199 59.2225 50.6172 59.2225 50.6158 59.2225L49.6336 59.4101C48.9408 59.5441 48.2628 59.0845 48.1315 58.3904H48.1288C47.9975 57.6976 48.4544 57.0209 49.1485 56.8883L54.9816 55.768C55.062 55.7533 55.1437 55.7439 55.2228 55.7439C55.8258 55.7439 56.3671 56.1754 56.485 56.7864L56.4824 56.7878Z" fill="#FFBDBC"/>
<path d="M55.9986 54.2634C56.1326 54.9588 55.673 55.6342 54.9789 55.7682L49.1459 56.8884L48.3191 57.0465C48.2387 57.0613 48.1569 57.0707 48.0779 57.0707C47.4749 57.0707 46.9335 56.6392 46.8156 56.0281C46.6816 55.3354 47.1412 54.6587 47.8353 54.526L48.6621 54.3665L50.8999 53.9377L54.4925 53.249C54.5729 53.2342 54.6546 53.2249 54.735 53.2249C55.338 53.2249 55.8794 53.6537 55.9973 54.266L55.9986 54.2634Z" fill="#FFBDBC"/>
<path d="M55.5135 51.7415C55.6475 52.4343 55.1879 53.111 54.4938 53.2436L50.9012 53.9351L48.6634 54.3639C48.583 54.3786 48.5013 54.388 48.4222 54.388C47.8192 54.388 47.2765 53.9565 47.1599 53.3455C47.0259 52.6527 47.4842 51.976 48.177 51.8433L48.4678 51.7871C48.4772 51.7871 48.4825 51.7871 48.4892 51.7844C48.7237 51.7469 48.9555 51.7013 49.1887 51.649C49.1954 51.649 49.2021 51.6464 49.2101 51.645L52.6633 50.9817L54.0087 50.7231C54.0891 50.7084 54.1708 50.699 54.2499 50.699C54.8529 50.699 55.3942 51.1305 55.5122 51.7415H55.5135Z" fill="#FFBDBC"/>
<path d="M52.4543 50.4364H52.4516C51.3716 50.9965 50.2915 51.3985 49.2128 51.6437C49.2035 51.6464 49.1981 51.6477 49.1914 51.6477L48.4919 51.7831C48.4919 51.7831 48.4785 51.7857 48.4705 51.7857C45.958 52.1904 43.4455 51.7402 40.9316 50.4364C41.3028 49.5359 41.7303 48.6649 42.2113 47.8274C42.8827 48.074 43.5982 48.2709 44.3473 48.4049C45.099 48.5389 45.8829 48.6086 46.6923 48.6086C48.311 48.6086 49.8333 48.3245 51.1733 47.8274C51.6543 48.6649 52.0831 49.5359 52.4543 50.4364Z" fill="#D6944D"/>
<path d="M48.6634 54.4736C48.6125 54.4736 48.5656 54.4374 48.5562 54.3852C48.5455 54.3262 48.5844 54.2686 48.6433 54.2565L54.3115 53.1685C54.3718 53.1564 54.4281 53.1953 54.4402 53.2556C54.4522 53.3159 54.412 53.3721 54.3531 53.3842L48.6849 54.4723C48.6782 54.4723 48.6701 54.4736 48.6634 54.4736Z" fill="#F6868A"/>
<path d="M49.1485 56.9969C49.0976 56.9969 49.0507 56.9607 49.0413 56.9085C49.0306 56.8495 49.0695 56.7919 49.1284 56.7799L54.7779 55.6945C54.8368 55.6837 54.8944 55.7212 54.9065 55.7815C54.9186 55.8418 54.8784 55.8981 54.8194 55.9102L49.17 56.9956C49.1633 56.9956 49.1552 56.9969 49.1485 56.9969Z" fill="#F6868A"/>
<path d="M50.7244 59.3043C50.6734 59.3043 50.6265 59.2681 50.6172 59.2158C50.6064 59.1569 50.6453 59.0992 50.7043 59.0885L55.4438 58.184C55.5015 58.172 55.5604 58.2122 55.5711 58.2711C55.5819 58.3301 55.543 58.3877 55.484 58.3984L50.7445 59.3029C50.7378 59.3029 50.7311 59.3043 50.7244 59.3043Z" fill="#F6868A"/>
<path d="M20.0142 46.7273C20.0008 46.6696 18.8498 41.709 21.4413 36.2203C21.5494 35.9916 21.6388 35.7911 21.7093 35.6187C21.1224 35.8264 20.4377 36.0166 19.97 36.1332C17.4508 41.8644 18.6287 46.8505 18.6796 47.0529C19.0936 47.1333 19.7757 46.9202 20.0156 46.7273H20.0142Z" fill="#67676F"/>
<path d="M20.4899 53.4861C22.4037 53.4861 23.9552 51.9347 23.9552 50.0209C23.9552 48.1071 22.4037 46.5557 20.4899 46.5557C18.5761 46.5557 17.0247 48.1071 17.0247 50.0209C17.0247 51.9347 18.5761 53.4861 20.4899 53.4861Z" fill="#D6944D"/>
<path d="M20.4899 51.7842C21.4639 51.7842 22.2534 50.9947 22.2534 50.0208C22.2534 49.0468 21.4639 48.2573 20.4899 48.2573C19.516 48.2573 18.7265 49.0468 18.7265 50.0208C18.7265 50.9947 19.516 51.7842 20.4899 51.7842Z" fill="#FFBC5B"/>
</svg>
