<svg width="67" height="67" viewBox="0 0 67 67" fill="none" xmlns="http://www.w3.org/2000/svg">
<path d="M57.5781 51.2969L60.7188 55.4844V58.625L58.625 61.7656L56.5312 60.7188L57.5781 57.5781L55.4844 54.4375L57.5781 51.2969Z" fill="#D78E0C"/>
<path d="M26.1718 33.5L29.5472 41.0947C30.0827 42.2993 30.3593 43.603 30.3593 44.9213V44.9895C30.3593 45.7025 30.2783 46.4133 30.118 47.1081L27.2187 59.6719H21.9843L21.9816 59.6664C21.3049 58.3129 21.0986 56.7725 21.3953 55.2887L24.0781 47.1094L23.0312 33.5H26.1718Z" fill="#5B89B9"/>
<path d="M23.0312 33.5H15.7031L17.7969 43.9688L9.85554 51.91C8.90759 52.858 8.37503 54.1437 8.375 55.4844L12.5625 58.625L23.6882 47.4993C24.6284 46.5592 25.2953 45.3812 25.6178 44.0912C25.9785 42.6479 25.8917 41.129 25.3692 39.7361L23.0312 33.5Z" fill="#6699CE"/>
<path d="M35.7208 47.1094C35.0167 47.1094 34.3196 47.248 33.6691 47.5175C33.0186 47.7869 32.4275 48.1818 31.9297 48.6797C31.4318 49.1775 30.8408 49.5725 30.1903 49.8419C29.5398 50.1113 28.8426 50.25 28.1386 50.25H26.1719L26.7821 51.166C27.2385 51.8504 27.8568 52.4116 28.5822 52.7996C29.3075 53.1877 30.1175 53.3907 30.9401 53.3906C31.9267 53.3906 32.8911 53.0986 33.712 52.5513L35.5938 51.2969L38.7344 50.25V50.1229C38.7343 49.3237 38.4168 48.5572 37.8517 47.9921C37.2865 47.4269 36.5201 47.1094 35.7208 47.1094Z" fill="#EE9D0D"/>
<path d="M24.0781 16.75L29.3125 23.0312L36.6406 25.125L35.5938 28.2656H28.2656L25.125 27.2188L24.0781 16.75Z" fill="#F1ECCF"/>
<path d="M40.9552 47.1094H49.2031L52.3437 45.0156L54.4375 40.8281H58.625L59.6719 42.9219H62.8125V46.0625L60.7187 47.1094H58.625L57.5781 53.3906L54.4375 56.5312L53.2411 63.8594H50.25V56.5312L41.875 54.4375L39.7812 56.5312L37.6875 60.7188L38.7344 63.8594H34.5469L33.5 60.7188L35.5937 55.4844V52.4708C35.5937 51.7667 35.7324 51.0696 36.0019 50.4191C36.2713 49.7686 36.6662 49.1775 37.1641 48.6797C37.6619 48.1818 38.253 47.7869 38.9034 47.5175C39.5539 47.248 40.2511 47.1094 40.9552 47.1094Z" fill="#EEB436"/>
<path d="M38.7344 63.8594H42.9219L41.875 59.6719L44.2245 55.018L41.875 54.4375L39.7812 56.5312L37.6875 60.7188L38.7344 63.8594Z" fill="#D78E0C"/>
<path d="M13.6094 16.75H24.0781L25.3638 23.1782C25.9012 25.8653 26.1719 28.5989 26.1719 31.3393V33.5H14.6562L13.6094 16.75Z" fill="#DCCF79"/>
<path d="M26.1221 29.3125H20.9375L21.0474 29.0913C21.6642 27.8602 21.985 26.502 21.9844 25.125H25.7047C25.9144 26.5129 26.0538 27.9105 26.1221 29.3125Z" fill="#DCCF79"/>
<path d="M8.375 55.4844L5.23438 58.625L10.4687 63.8594L11.4895 62.8387C11.8297 62.4984 12.0996 62.0945 12.2837 61.6499C12.4678 61.2053 12.5625 60.7288 12.5625 60.2477V58.625L8.375 55.4844Z" fill="#DCCF79"/>
<path d="M21.9844 59.6719V63.8594H29.3125V62.9833C29.3125 62.3028 29.123 61.6358 28.7653 61.057C28.4075 60.4781 27.8957 60.0103 27.2871 59.706L27.2187 59.6719H21.9844Z" fill="#DCCF79"/>
<path d="M58.625 48.1564C57.4878 48.1536 56.3668 47.8875 55.3496 47.379C54.3325 46.8704 53.447 46.1332 52.7625 45.2251L52.7044 45.1475C52.2207 44.5031 51.5765 43.9968 50.836 43.6791C47.0595 42.0583 43.9449 39.2037 42.0021 35.5823C42.6224 34.2932 42.8076 32.8375 42.5296 31.4341L41.8547 28.0596C41.8003 27.7874 41.6399 27.5479 41.4089 27.3939C41.1778 27.2398 40.8951 27.1839 40.6228 27.2384C40.3505 27.2928 40.1111 27.4532 39.957 27.6842C39.803 27.9152 39.7471 28.198 39.8015 28.4703L40.4764 31.8447C40.6388 32.6637 40.5705 33.5117 40.2789 34.294C39.5043 33.9345 38.8487 33.3609 38.3895 32.6409C37.9303 31.9209 37.6868 31.0846 37.6875 30.2306V28.6583C37.6875 28.0802 37.2188 28.2657 36.6406 28.2657C36.0625 28.2657 35.5938 27.9493 35.5938 28.5274V30.2306C35.5923 31.6132 36.0274 32.961 36.8371 34.0817C37.6468 35.2025 38.7897 36.0389 40.1028 36.4718C42.2659 40.558 45.7626 43.7806 50.0113 45.6038C50.4148 45.7769 50.7659 46.0527 51.0294 46.4039L51.0874 46.4814C51.9674 47.6489 53.106 48.5968 54.4137 49.2506C55.7215 49.9045 57.1629 50.2466 58.625 50.2501C58.9027 50.2501 59.1689 50.1398 59.3653 49.9435C59.5616 49.7472 59.6719 49.4809 59.6719 49.2032C59.6719 48.9256 59.5616 48.6593 59.3653 48.463C59.1689 48.2666 58.9027 48.1564 58.625 48.1564Z" fill="#7A4922"/>
<path d="M25.125 7.32812V11.5156C25.125 12.0709 24.9044 12.6035 24.5118 12.9961C24.1191 13.3888 23.5865 13.6094 23.0312 13.6094H21.9844V16.75H18.8438V11.5156L20.9375 7.32812H25.125Z" fill="#FDC9A6"/>
<path d="M16.75 9.42188V6.80469C16.75 5.83292 17.136 4.90095 17.8232 4.2138C18.5103 3.52666 19.4423 3.14062 20.4141 3.14062H25.125C25.6803 3.14063 26.2129 3.36122 26.6055 3.75387C26.9982 4.14652 27.2188 4.67908 27.2188 5.23438C27.2188 5.78967 26.9982 6.32223 26.6055 6.71488C26.2129 7.10753 25.6803 7.32812 25.125 7.32812H20.9375L18.8438 11.5156V14.6562H16.75V9.42188Z" fill="#7A4922"/>
<path d="M20.9377 16.75L15.7033 8.375L14.8266 9.25176C13.8625 10.2158 13.2262 11.4587 13.0077 12.8044C12.7893 14.1502 12.9999 15.5306 13.6096 16.75H20.9377Z" fill="#F1ECCF"/>
<path d="M26.1221 29.3125H20.9375L21.0474 29.0913C21.6642 27.8602 21.985 26.502 21.9844 25.125H25.7047C25.9144 26.5129 26.0538 27.9105 26.1221 29.3125Z" fill="#F1ECCF"/>
<path d="M16.9834 22.2936L14.6564 26.1719L19.8908 34.5469L16.7502 37.6875L10.1587 29.7666C9.6239 29.0026 9.31473 28.1037 9.26644 27.1725C9.21815 26.2412 9.43268 25.3152 9.88555 24.5L12.924 19.0307C13.1318 18.6568 13.4358 18.3452 13.8045 18.1282C14.1733 17.9113 14.5933 17.7969 15.0211 17.7969C15.5246 17.7969 16.0153 17.9553 16.4238 18.2497C16.8322 18.5441 17.1377 18.9595 17.2969 19.4372C17.4538 19.9077 17.507 20.4067 17.4529 20.8997C17.3987 21.3928 17.2386 21.8683 16.9834 22.2936Z" fill="#F1ECCF"/>
<path d="M40.8281 25.125H36.6406L35.5938 28.2656L38.7344 29.3125L40.8281 28.2656V25.125Z" fill="#FDC9A6"/>
</svg>
